<svg id="Layer_1" data-name="Layer 1" xmlns="http://www.w3.org/2000/svg" xmlns:xlink="http://www.w3.org/1999/xlink" viewBox="0 0 16 16"><defs><style>.cls-1{fill:#39b54a;}.cls-2{fill:#8cc63f;}.cls-3{fill:#009245;}</style><symbol id="New_Symbol" data-name="New Symbol" viewBox="0 0 12.1 10.54"><path class="cls-1" d="M.34,2.82v4.9a.3.3,0,0,0,.6,0V2.82a.3.3,0,0,0-.6,0Z"/><path class="cls-2" d="M6.6,2.82v4.9a.3.3,0,0,0,.6,0V2.82a.3.3,0,0,0-.6,0Z"/><path class="cls-3" d="M.11.45c1,2.37,3.15,3.41,5.16,4.84V4.64C2.91,5.63,1.55,8,.07,10c-.29.38.36.76.65.38C2.13,8.5,3.41,6.23,5.65,5.29c.28-.12.2-.51,0-.65C3.86,3.37,1.73,2.39.83.25.65-.19-.08,0,.11.45Z"/><path class="cls-1" d="M6.38.45c1,2.37,3.15,3.41,5.16,4.84V4.64C9.18,5.63,7.81,8,6.34,10c-.29.38.36.76.65.38,1.4-1.88,2.68-4.15,4.92-5.09.29-.12.2-.51,0-.65C10.12,3.37,8,2.39,7.1.25c-.18-.44-.91-.25-.72.2Z"/></symbol></defs><title>next-song</title><use width="12.1" height="10.54" transform="translate(2.04 2.63)" xlink:href="#New_Symbol"/></svg>