<svg id="Layer_1" data-name="Layer 1" xmlns="http://www.w3.org/2000/svg" viewBox="0 0 1366 768"><defs><style>.cls-1{fill:#39b54a;}.cls-2{fill:#009245;}.cls-3{fill:#8cc63f;}.cls-4{fill:#00417a;stroke:#00417a;}.cls-4,.cls-5{stroke-miterlimit:10;stroke-width:9px;}.cls-5{fill:#009be2;stroke:#009be2;}</style></defs><title>next-song-logo</title><path class="cls-1" d="M941.31,150.53,941.39,311c0,7.72,12,7.73,12,0l-.08-160.47c0-7.72-12-7.73-12,0Z"/><path class="cls-2" d="M954.21,67.88c10.49,33.35,32.15,61.5,58,84.59,28.86,25.82,62.4,45.58,92.33,70l3.31-12.53c-57.46,22-90.33,79.59-123.23,127.91q-16,23.42-31.9,46.84c-5.45,8,7.54,15.51,13,7.57,22.48-33,44.28-66.6,67.78-98.89,20.41-28,45.16-56.25,78.38-69,4.7-1.8,8.11-8.61,3.31-12.54-53.43-43.68-124.21-77.37-146.43-148-2.88-9.18-17.37-5.26-14.46,4Z"/><path class="cls-3" d="M1179.84,136.59l.09,160.46c0,7.72,12,7.74,12,0l-.09-160.46c0-7.73-12-7.74-12,0Z"/><path class="cls-1" d="M1190.41,53.93c10.49,33.35,32.15,61.5,58,84.6,28.86,25.81,62.4,45.57,92.33,70L1344,196c-57.46,22-90.33,79.59-123.23,127.91q-15.94,23.43-31.9,46.84c-5.45,8,7.54,15.51,12.95,7.57,22.48-33,44.28-66.6,67.78-98.89,20.41-28,45.16-56.25,78.38-69,4.7-1.8,8.12-8.61,3.31-12.53-53.43-43.69-124.21-77.37-146.43-148-2.88-9.18-17.37-5.26-14.46,4Z"/><path class="cls-4" d="M32.53,202.53c0-20.92-.44-38.08-1.78-54.82H65.51l2.23,33.48h.89c10.69-19.25,35.65-38.08,71.3-38.08,29.86,0,76.21,16.74,76.21,86.2V350.25H176.92V233.5c0-32.64-12.92-59.84-49.91-59.84a55.26,55.26,0,0,0-52.59,37.66c-1.78,4.6-2.67,10.88-2.67,17.16V350.25H32.53Z"/><path class="cls-4" d="M301.7,255.67c.89,49.8,34.76,70.31,74,70.31,28.07,0,45-4.61,59.71-10.47l6.69,26.37c-13.82,5.86-37.44,12.55-71.75,12.55-66.4,0-106.07-41-106.07-102.1s38.33-109.22,101.17-109.22c70.41,0,89.13,58.17,89.13,95.41a131.29,131.29,0,0,1-1.34,17.15Zm115-26.36c.45-23.43-10.25-59.84-54.36-59.84-39.67,0-57.05,34.32-60.17,59.84Z"/><path class="cls-4" d="M520.06,147.71l30.75,43.52c8,11.3,14.71,21.76,21.84,33.06H574c7.13-12.13,14.26-22.6,21.39-33.48l30.3-43.1H668l-73.53,97.92,75.76,104.62H625.68L594,304.63c-8.47-11.71-15.6-23-23.17-35.15H570c-7.13,12.14-14.71,23-22.73,35.15l-31.2,45.62H472.82l76.66-103.36-73.09-99.18Z"/><path class="cls-4" d="M761.15,89.55v58.16H817.3v28H761.15V285c0,25.1,7.57,39.33,29.41,39.33a92.39,92.39,0,0,0,22.73-2.51l1.78,27.62c-7.57,2.93-19.61,5-34.76,5-18.27,0-33-5.44-42.33-15.48-11.15-10.88-15.16-28.88-15.16-52.73V175.75H689.4v-28h33.42V99.17Z"/><path class="cls-5" d="M300.49,625.73c11.59,7.11,32.09,14.64,51.7,14.64,28.52,0,41.89-13.39,41.89-30.13,0-17.57-11.14-27.2-40.11-37.24-38.77-13-57-33.06-57-57.33,0-32.64,28.07-59.42,74.42-59.42,21.84,0,41,5.86,53,12.55l-9.8,26.79a87.87,87.87,0,0,0-44.12-11.72c-23.18,0-36.1,12.55-36.1,27.62,0,16.73,12.92,24.27,41,34.31,37.43,13.39,56.6,31,56.6,61.09,0,35.57-29.42,60.68-80.66,60.68-23.62,0-45.46-5.44-60.61-13.81Z"/><path class="cls-5" d="M677.51,560.45c0,74.9-55.26,107.54-107.4,107.54-58.38,0-103.4-40.17-103.4-104.2,0-67.79,47.24-107.54,107-107.54C635.62,456.25,677.51,498.51,677.51,560.45Zm-171.13,2.09c0,44.35,27.18,77.83,65.51,77.83,37.43,0,65.51-33.06,65.51-78.67,0-34.31-18.27-77.83-64.62-77.83S506.38,524,506.38,562.54Z"/><path class="cls-5" d="M727,515.67c0-20.92-.45-38.08-1.78-54.82H760l2.22,33.48h.9c10.69-19.25,35.65-38.08,71.3-38.08,29.86,0,76.21,16.74,76.21,86.2V663.39H871.36V546.64c0-32.64-12.92-59.84-49.91-59.84a55.26,55.26,0,0,0-52.59,37.66c-1.78,4.6-2.67,10.88-2.67,17.16V663.39H727Z"/><path class="cls-5" d="M1160.13,460.85c-.89,14.65-1.78,31-1.78,55.66V634.09c0,46.45-9.8,74.91-30.75,92.48-20.94,18.42-51.25,24.27-78.43,24.27-25.85,0-54.37-5.85-71.75-16.73l9.8-28c14.26,8.37,36.54,15.9,63.28,15.9,40.11,0,69.53-19.67,69.53-70.72v-22.6h-.9c-12,18.84-35.2,33.9-68.63,33.9-53.47,0-91.8-42.68-91.8-98.76,0-68.62,47.68-107.54,97.15-107.54,37.44,0,57.94,18.41,67.29,35.15h.9l1.78-30.55Zm-40.55,79.93c0-6.28-.45-11.72-2.23-16.74-7.13-21.34-26.29-38.92-54.81-38.92-37.44,0-64.18,29.71-64.18,76.58,0,39.76,21.39,72.81,63.73,72.81,24.07,0,45.9-14.22,54.37-37.66a60.39,60.39,0,0,0,3.12-19.67Z"/></svg>