<svg id="Layer_1" data-name="Layer 1" xmlns="http://www.w3.org/2000/svg" viewBox="0 0 1366 768"><defs><style>.cls-1,.cls-5,.cls-8{opacity:0.93;}.cls-2{fill:#39b54a;}.cls-3{fill:#009245;}.cls-4{fill:#8cc63f;}.cls-5,.cls-8{font-size:418.45px;stroke-miterlimit:10;stroke-width:9px;font-family:MyriadPro-Regular, Myriad Pro;}.cls-5{fill:#00417a;stroke:#00417a;}.cls-6{letter-spacing:0em;}.cls-7{letter-spacing:0.01em;}.cls-8{fill:#009be2;stroke:#009be2;}</style></defs><title>next-song-logo</title><g class="cls-1"><path class="cls-2" d="M941.31,150.53,941.39,311c0,7.72,12,7.73,12,0l-.08-160.47c0-7.72-12-7.73-12,0Z"/></g><g class="cls-1"><path class="cls-3" d="M954.21,67.87c10.49,33.35,32.15,61.51,58,84.6,28.86,25.82,62.4,45.58,92.33,70l3.31-12.54c-57.46,22-90.33,79.6-123.23,127.92l-31.9,46.84c-5.45,8,7.54,15.51,13,7.57,22.48-33,44.28-66.61,67.78-98.89,20.41-28,45.16-56.25,78.38-69,4.7-1.8,8.12-8.61,3.31-12.54-53.43-43.68-124.21-77.37-146.43-148-2.88-9.18-17.37-5.26-14.46,4Z"/></g><g class="cls-1"><path class="cls-4" d="M1179.84,136.58l.09,160.47c0,7.72,12,7.74,12,0l-.09-160.47c0-7.72-12-7.73-12,0Z"/></g><g class="cls-1"><path class="cls-2" d="M1190.41,53.93c10.49,33.35,32.15,61.5,58,84.59,28.86,25.82,62.41,45.58,92.33,70L1344,196c-57.46,22-90.33,79.59-123.23,127.91q-15.94,23.43-31.9,46.84c-5.45,8,7.54,15.51,12.95,7.57,22.48-33,44.28-66.6,67.78-98.89,20.41-28,45.16-56.25,78.38-69,4.7-1.8,8.12-8.61,3.31-12.54-53.43-43.68-124.21-77.37-146.43-148-2.88-9.18-17.37-5.26-14.46,4Z"/></g><text class="cls-5" transform="translate(0 350.25) scale(1.06 1)">n<tspan class="cls-6" x="232.24" y="0">e</tspan><tspan class="cls-7" x="440.63" y="0">x</tspan><tspan x="639.8" y="0">t </tspan></text><text class="cls-8" transform="translate(273.31 663.39) scale(1.06 1)">song</text></svg>